<svg xmlns="http://www.w3.org/2000/svg" viewBox="0 0 200 200" width="100%" height="100%">
    <defs>
      <linearGradient id="bg" x1="0%" y1="0%" x2="100%" y2="100%">
        <stop offset="0%" stop-color="#EAB308"/><stop offset="100%" stop-color="#854D0E"/>
      </linearGradient>
      <pattern id="grid" width="20" height="20" patternUnits="userSpaceOnUse">
        <path d="M 20 0 L 0 0 0 20" fill="none" stroke="rgba(255,255,255,0.08)" stroke-width="1"/>
      </pattern>
    </defs>
    <rect width="200" height="200" fill="url(#bg)" />
    <rect width="200" height="200" fill="url(#grid)" />
    <!-- Head Base -->
    <path d="M 60 110 C 60 65, 140 65, 140 110 C 140 155, 125 170, 100 170 C 75 170, 60 155, 60 110 Z" fill="#F3D5C0" stroke="#111" stroke-width="3"/>
    <!-- Character Hair / Accessories -->
    <g fill="#FACC15" stroke="#111" stroke-width="3">
      <path d="M 35 110 L 10 70 L 45 65 L 20 25 L 65 40 L 70 5 L 100 25 L 130 5 L 135 40 L 180 25 L 155 65 L 190 70 L 165 110 Z"/>
    </g>
    <circle cx="100" cy="100" r="90" fill="none" stroke="#FDE047" stroke-width="3" stroke-dasharray="10 6" opacity="0.6"/>
  </svg>