<svg xmlns="http://www.w3.org/2000/svg" viewBox="0 0 200 200" width="100%" height="100%">
    <defs>
      <linearGradient id="bg" x1="0%" y1="0%" x2="100%" y2="100%">
        <stop offset="0%" stop-color="#0284C7"/><stop offset="100%" stop-color="#0369A1"/>
      </linearGradient>
      <pattern id="grid" width="20" height="20" patternUnits="userSpaceOnUse">
        <path d="M 20 0 L 0 0 0 20" fill="none" stroke="rgba(255,255,255,0.08)" stroke-width="1"/>
      </pattern>
    </defs>
    <rect width="200" height="200" fill="url(#bg)" />
    <rect width="200" height="200" fill="url(#grid)" />
    <!-- Head Base -->
    <path d="M 60 110 C 60 65, 140 65, 140 110 C 140 155, 125 170, 100 170 C 75 170, 60 155, 60 110 Z" fill="#F3D5C0" stroke="#111" stroke-width="3"/>
    <!-- Character Hair / Accessories -->
    <g fill="#78350F" stroke="#111" stroke-width="3">
      <path d="M 50 100 C 40 60, 70 40, 100 40 C 130 40, 160 60, 150 100 C 140 75, 120 60, 100 60 C 80 60, 60 75, 50 100 Z"/>
    </g>
    <path d="M 50 170 L 80 140 L 100 170 L 120 140 L 150 170 Z" fill="#DC2626" stroke="#111" stroke-width="2"/>
  </svg>