<svg xmlns="http://www.w3.org/2000/svg" viewBox="0 0 200 200" width="100%" height="100%">
    <defs>
      <linearGradient id="bg" x1="0%" y1="0%" x2="100%" y2="100%">
        <stop offset="0%" stop-color="#F97316"/><stop offset="100%" stop-color="#C2410C"/>
      </linearGradient>
      <pattern id="grid" width="20" height="20" patternUnits="userSpaceOnUse">
        <path d="M 20 0 L 0 0 0 20" fill="none" stroke="rgba(255,255,255,0.08)" stroke-width="1"/>
      </pattern>
    </defs>
    <rect width="200" height="200" fill="url(#bg)" />
    <rect width="200" height="200" fill="url(#grid)" />
    <!-- Head Base -->
    <path d="M 60 110 C 60 65, 140 65, 140 110 C 140 155, 125 170, 100 170 C 75 170, 60 155, 60 110 Z" fill="#F3D5C0" stroke="#111" stroke-width="3"/>
    <!-- Character Hair / Accessories -->
    <g fill="#EAB308" stroke="#111" stroke-width="3">
      <path d="M 45 90 L 35 60 L 60 65 L 60 35 L 85 45 L 100 20 L 115 45 L 140 35 L 140 65 L 165 60 L 155 90 Z"/>
    </g>
    <rect x="55" y="70" width="90" height="18" fill="#334155" stroke="#111" stroke-width="2"/>
     <rect x="80" y="73" width="40" height="12" rx="2" fill="#94A3B8"/>
     <circle cx="100" cy="79" r="3" fill="none" stroke="#111" stroke-width="1.5"/>
  </svg>